# xmcd CD database file
#
# Track frame offsets:
#	150
#	15509
#	32307
#	53241
#	78915
#	99134
#	125858
#	152502
#
# Disc length: 2226 seconds
#
# Revision: 0
# Processed by: cddbd v1.5.2PL0 Copyright (c) Steve Scherf et al.
# Submitted via: CDex 1.51
#
DISCID=4e08b008
DTITLE=thelonious monk - a duke ellington song book
DYEAR=1955
DGENRE=Jazz
TTITLE0=black and tan fantasy
TTITLE1=solitude
TTITLE2=it don't mean a thing
TTITLE3=i let a song go out of my heart
TTITLE4=sophisticated lady
TTITLE5=caravan
TTITLE6=i got it bag and that ain't good
TTITLE7=mood indigo
EXTD=YEAR: 1955
EXTT0=
EXTT1=
EXTT2=
EXTT3=
EXTT4=
EXTT5=
EXTT6=
EXTT7=
PLAYORDER=
